<svg width="154" height="61" viewBox="0 0 154 61" fill="none" xmlns="http://www.w3.org/2000/svg">
<path fill-rule="evenodd" clip-rule="evenodd" d="M27.6573 4.51855H0V61H27.6573V55.3519H5.53145V10.1667H27.6573V4.51855Z" fill="#F0CE76"/>
<path fill-rule="evenodd" clip-rule="evenodd" d="M27.6573 4.51855H55.3145V61H27.6573V55.3519H49.7831V10.1667H27.6573V4.51855Z" fill="#F0CE76"/>
<path d="M5.53146 10.167H27.6573V55.3522H5.53146V10.167Z" fill="#F0CE76"/>
<path d="M8.85033 13.5557H25.9978V31.0649H8.85033V13.5557Z" fill="#F8F8F8"/>
<path d="M8.85033 34.4541H25.9978V51.9633H8.85033V34.4541Z" fill="#F8F8F8"/>
<path d="M49.7831 10.167H27.6573V55.3522H49.7831V10.167Z" fill="#F0CE76"/>
<path d="M46.4642 13.5557H29.3167V31.0649H46.4642V13.5557Z" fill="#F8F8F8"/>
<path d="M46.4642 34.4541H29.3167V51.9633H46.4642V34.4541Z" fill="#F8F8F8"/>
<path fill-rule="evenodd" clip-rule="evenodd" d="M39.7158 0H41.3753C41.3753 5.30296 45.5853 9.60185 50.7787 9.60185V11.2963V12.9907C45.5853 12.9907 41.3753 17.2896 41.3753 22.5926H39.7158V11.2963V0Z" fill="#00D9E0"/>
<path fill-rule="evenodd" clip-rule="evenodd" d="M39.7158 0H38.0564C38.0564 5.30296 33.8463 9.60185 28.6529 9.60185V11.2963V12.9907C33.8463 12.9907 38.0564 17.2896 38.0564 22.5926H39.7158V11.2963V0Z" fill="#55FBFF"/>
<path fill-rule="evenodd" clip-rule="evenodd" d="M48.6768 19.0908H50.3362C50.3362 24.3938 54.5463 28.6927 59.7397 28.6927V30.3871V32.0816C54.5463 32.0816 50.3362 36.3805 50.3362 41.6834H48.6768V30.3871V19.0908Z" fill="#00D9E0"/>
<path fill-rule="evenodd" clip-rule="evenodd" d="M48.6768 19.0908H47.0174C47.0174 24.3938 42.8073 28.6927 37.6139 28.6927V30.3871V32.0816C42.8073 32.0816 47.0174 36.3805 47.0174 41.6834H48.6768V30.3871V19.0908Z" fill="#55FBFF"/>
<path d="M78.0218 27.8069H70.227L68.8657 32.3077H62.7887L71.4424 8.21484H76.7902L85.5087 32.3077H79.3993L78.0218 27.8069ZM71.5882 23.3225H76.6605L74.1163 14.9661L71.5882 23.3225Z" fill="white"/>
<path d="M92.7649 24.1334V32.3077H87.0767V8.21484H96.4921C98.2963 8.21484 99.8898 8.55682 101.273 9.24078C102.666 9.9137 103.741 10.879 104.498 12.1366C105.265 13.3831 105.648 14.8007 105.648 16.3892C105.648 18.7389 104.822 20.6198 103.169 22.0318C101.527 23.4329 99.2686 24.1334 96.3949 24.1334H92.7649ZM92.7649 19.649H96.4921C97.5941 19.649 98.4314 19.3677 99.0039 18.8051C99.5873 18.2425 99.879 17.4482 99.879 16.4223C99.879 15.2971 99.5819 14.398 98.9877 13.7251C98.3935 13.0522 97.5833 12.7102 96.5569 12.6992H92.7649V19.649Z" fill="white"/>
<path d="M127.052 12.6992H119.97V32.3077H114.282V12.6992H107.33V8.21484H127.052V12.6992Z" fill="white"/>
<path d="M84.6012 47.6429C84.6012 49.9926 84.1745 52.0721 83.321 53.8812C82.4675 55.6904 81.2521 57.0859 79.6748 58.0677C78.1082 59.0385 76.3202 59.5239 74.3108 59.5239C72.3013 59.5239 70.5187 59.055 68.963 58.1173C67.4072 57.1686 66.1918 55.8173 65.3167 54.0632C64.4525 52.3092 63.9987 50.296 63.9555 48.0235V46.6666C63.9555 44.3058 64.3768 42.2264 65.2195 40.4283C66.073 38.6191 67.2884 37.2236 68.8657 36.2418C70.4539 35.26 72.2581 34.7691 74.2783 34.7691C76.277 34.7691 78.0596 35.2545 79.6261 36.2252C81.1927 37.196 82.4081 38.5805 83.2724 40.3786C84.1474 42.1657 84.5904 44.2176 84.6012 46.5342V47.6429ZM78.8159 46.6335C78.8159 44.2397 78.4215 42.425 77.6329 41.1894C76.855 39.9429 75.7368 39.3196 74.2783 39.3196C71.4262 39.3196 69.9191 41.5038 69.757 45.8723L69.7408 47.6429C69.7408 50.0036 70.1244 51.8183 70.8914 53.087C71.6585 54.3556 72.7982 54.9899 74.3108 54.9899C75.7476 54.9899 76.855 54.3666 77.6329 53.12C78.4107 51.8735 78.8051 50.0809 78.8159 47.7422V46.6335Z" fill="white"/>
<path d="M95.7142 49.6617H93.0241V59.1929H87.336V35.1H93.0241V44.4162H95.2119L99.7494 35.1H106.637L100.155 46.2198L107.447 59.1929H100.722L95.7142 49.6617Z" fill="white"/>
<path d="M128.413 59.1929H122.757V49.1321H114.379V59.1929H108.691V35.1H114.379V44.6644H122.757V35.1H128.413V59.1929Z" fill="white"/>
<path d="M145.554 54.692H137.76L136.398 59.1929H130.321L138.975 35.1H144.323L153.041 59.1929H146.932L145.554 54.692ZM139.121 50.2077H144.193L141.649 41.8513L139.121 50.2077Z" fill="white"/>
</svg>
